<svg xmlns="http://www.w3.org/2000/svg" viewBox="0 0 512 268.3" width="32" height="17">
  <path fill="#4ade80" fill-rule="evenodd" d="M510,223.01V45.29c-.01-3.3-2.7-5.97-6-5.97h-120.66v-22.67c0-8.09-6.56-14.64-14.64-14.65H93.12C42.82,2.07,2.06,42.83,2,93.13v82.04c.06,50.3,40.82,91.06,91.12,91.13h275.58c8.09,0,14.64-6.56,14.64-14.65v-22.67h120.66c3.3,0,5.99-2.67,6-5.97h0ZM498,216.99h-114.66V51.31h114.66v165.68ZM420.8,153.33c-.01-3.31,2.67-6.01,5.98-6.02,0,0,.01,0,.02,0h48.06c3.31,0,6,2.69,6,6,0,0,0,.01,0,.02v29.67c-.01,3.3-2.7,5.97-6,5.97h-48.06c-3.3,0-5.99-2.67-6-5.97v-29.67ZM426.8,120.99c-3.32,0-6-2.69-6-6.01,0,0,0,0,0,0v-29.68c.01-3.3,2.7-5.97,6-5.97h48.06c3.3,0,5.99,2.67,6,5.97v29.68c.01,3.31-2.67,6.01-5.98,6.02,0,0-.01,0-.02,0h-48.06Z"/>
  <path d="M434.8,174.98v-13.68h32.06v13.68h-32.06ZM482.86,183v-29.67c0-4.42-3.57-8.01-7.99-8.02h-48.07c-4.42,0-8,3.59-8,8.01,0,0,0,0,0,0v29.67c.01,4.41,3.59,7.97,8,7.97h48.06c4.41,0,7.99-3.57,8-7.97h0ZM434.8,107v-13.68h32.06v13.68h-32.06ZM482.86,114.98v-29.68c-.01-4.41-3.59-7.97-8-7.97h-48.06c-4.41,0-7.99,3.57-8,7.97v29.68c0,4.42,3.57,8.01,7.99,8.02,0,0,0,0,0,0h48.06c4.42,0,8-3.59,8-8.01,0,0,0,0,0,0h0ZM368.7,252.31c.35-.02.63-.31.64-.66V16.65c-.01-.35-.29-.64-.64-.66H93.12c-42.57.06-77.07,34.56-77.12,77.14v82.04c.05,42.57,34.55,77.07,77.12,77.14h275.58ZM496,53.31h-110.66v161.68h110.66V53.31ZM512,223.01V45.29c-.01-4.41-3.59-7.97-8-7.97h-118.66v-20.67c0-9.19-7.45-16.64-16.64-16.65H93.12C41.72.07.06,41.72,0,93.13v82.04c.06,51.41,41.72,93.06,93.12,93.13h275.58c9.19,0,16.64-7.46,16.64-16.65v-20.67h118.66c4.41,0,7.99-3.57,8-7.97h0Z" fill="#4ade80"/>
  <path fill="#0e0f11" d="M124.82 209.7Q107.91 209.7 92.44 204.86Q76.97 200.01 67.89 192.38L77.17 171.54Q85.84 178.55 98.63 182.99Q111.41 187.42 124.82 187.42Q141.74 187.42 149.27 182.06Q156.8 176.7 156.8 168.65Q156.8 162.05 152.16 158.03Q147.51 154.01 139.88 151.63Q132.25 149.26 123.07 147.2Q113.89 145.14 104.71 142.35Q95.53 139.57 87.9 135.13Q80.27 130.7 75.63 123.27Q70.98 115.85 70.98 104.29Q70.98 92.54 77.28 82.74Q83.57 72.94 96.46 67.06Q109.35 61.18 129.15 61.18Q142.15 61.18 154.94 64.48Q167.73 67.78 177.22 73.97L168.76 94.8Q159.07 89.03 148.75 86.24Q138.44 83.46 128.95 83.46Q112.24 83.46 104.92 89.24Q97.59 95.01 97.59 103.06Q97.59 109.66 102.24 113.58Q106.88 117.5 114.51 119.97Q122.14 122.45 131.32 124.41Q140.5 126.37 149.58 129.05Q158.65 131.73 166.29 136.27Q173.92 140.81 178.56 148.13Q183.2 155.45 183.2 166.8Q183.2 178.35 176.91 188.15Q170.62 197.94 157.62 203.82Q144.63 209.7 124.82 209.7Z M209.81 207.64V63.24H269.22Q288.2 63.24 302.02 69.43Q315.84 75.62 323.26 87.17Q330.69 98.72 330.69 114.61Q330.69 130.49 323.26 142.04Q315.84 153.59 302.02 159.78Q288.2 165.97 269.22 165.97H236.63V207.64ZM236.63 143.28H267.98Q285.72 143.28 294.69 135.75Q303.67 128.22 303.67 114.61Q303.67 100.99 294.69 93.46Q285.72 85.93 267.98 85.93H236.63Z"/>
</svg>
