<?xml version="1.0" encoding="UTF-8"?>
<svg id="Layer_1" xmlns="http://www.w3.org/2000/svg" version="1.1" viewBox="0 0 512 268.3">
  <!-- Generator: Adobe Illustrator 30.2.1, SVG Export Plug-In . SVG Version: 2.1.1 Build 1)  -->
  <defs>
    <style>
      .st0 {
        isolation: isolate;
      }

      .st1 {
        fill: #A25B47;
      }

      .st1, .st2 {
        fill-rule: evenodd;
      }
    </style>
  </defs>
  <path class="st1" d="M510,223.01V45.29c-.01-3.3-2.7-5.97-6-5.97h-120.66v-22.67c0-8.09-6.56-14.64-14.64-14.65H93.12C42.82,2.07,2.06,42.83,2,93.13v82.04c.06,50.3,40.82,91.06,91.12,91.13h275.58c8.09,0,14.64-6.56,14.64-14.65v-22.67h120.66c3.3,0,5.99-2.67,6-5.97h0ZM498,216.99h-114.66V51.31h114.66v165.68h0ZM420.8,153.33c-.01-3.31,2.67-6.01,5.98-6.02h48.08c3.31,0,6,2.69,6,6v29.69c-.01,3.3-2.7,5.97-6,5.97h-48.06c-3.3,0-5.99-2.67-6-5.97v-29.67ZM426.8,120.99c-3.32,0-6-2.69-6-6.01h0v-29.68c.01-3.3,2.7-5.97,6-5.97h48.06c3.3,0,5.99,2.67,6,5.97v29.68c.01,3.31-2.67,6.01-5.98,6.02h-48.08Z"/>
  <path class="st2" d="M434.8,174.98v-13.68h32.06v13.68h-32.06ZM482.86,183v-29.67c0-4.42-3.57-8.01-7.99-8.02h-48.07c-4.42,0-8,3.59-8,8.01h0v29.67c.01,4.41,3.59,7.97,8,7.97h48.06c4.41,0,7.99-3.57,8-7.97h0ZM434.8,107v-13.68h32.06v13.68h-32.06ZM482.86,114.98v-29.68c-.01-4.41-3.59-7.97-8-7.97h-48.06c-4.41,0-7.99,3.57-8,7.97v29.68c0,4.42,3.57,8.01,7.99,8.02h48.06c4.42,0,8-3.59,8-8.01h.01ZM368.7,252.31c.35-.02.63-.31.64-.66V16.65c-.01-.35-.29-.64-.64-.66H93.12c-42.57.06-77.07,34.56-77.12,77.14v82.04c.05,42.57,34.55,77.07,77.12,77.14h275.58ZM496,53.31h-110.66v161.68h110.66V53.31ZM512,223.01V45.29c-.01-4.41-3.59-7.97-8-7.97h-118.66v-20.67C385.34,7.46,377.89,0,368.7,0H93.12C41.72.07.06,41.72,0,93.13v82.04c.06,51.41,41.72,93.06,93.12,93.13h275.58c9.19,0,16.64-7.46,16.64-16.65v-20.67h118.66c4.41,0,7.99-3.57,8-7.97h0Z"/>
  <g class="st0">
    <g class="st0">
      <path d="M67.89,192.38l9.28-20.83c11.55,9.28,29.91,15.88,47.65,15.88,22.48,0,31.97-8.04,31.97-18.77,0-31.15-85.81-10.73-85.81-64.36,0-23.31,18.57-43.11,58.17-43.11,17.33,0,35.48,4.54,48.06,12.79l-8.46,20.83c-13-7.63-27.23-11.35-39.81-11.35-22.28,0-31.35,8.66-31.35,19.6,0,30.74,85.61,10.73,85.61,63.74,0,23.1-18.77,42.91-58.38,42.91-22.48,0-44.97-7.01-56.93-17.33h0Z"/>
      <path d="M330.69,114.61c0,31.77-23.52,51.37-61.47,51.37h-32.59v41.67h-26.82V63.24h59.41c37.96,0,61.47,19.39,61.47,51.36h0ZM303.67,114.61c0-18.15-12.17-28.67-35.69-28.67h-31.36v57.35h31.36c23.52,0,35.69-10.52,35.69-28.67h0Z"/>
    </g>
  </g>
</svg>